<?xml version="1.0" encoding="UTF-8" ?>
<!-- Generator: wikimedia.charts_svg, 2014-01-20 -->
<svg id="head"
  xmlns="http://www.w3.org/2000/svg"
  xmlns:xlink="http://www.w3.org/1999/xlink"
  version="1.1"
  font-family="Helvetica, Arial"
  width="600"
  height="235"
>

<title>Fill Patterns in Charts SVG</title>
<desc>
  SVG chart generated by Charts SVG
</desc>

<style id="styles" type="text/css"> <![CDATA[
  /*-- general style of lines --*/
  .rect-general {
    stroke:          rgb(0, 0, 0);
    stroke-width:    1;
  }
]]>
</style>

<defs>
  <pattern id="pattern1" width="6" height="6" patternUnits="userSpaceOnUse" patternTransform="rotate(0)">
    <rect x="0" y="0" width="6" height="6" fill="white" stroke="none"/>
    <line x1="0" y1="4" x2="6" y2="4" stroke="black" stroke-width="2"/>
  </pattern>
  <pattern id="pattern2" width="6" height="6" patternUnits="userSpaceOnUse" patternTransform="rotate(90)">
    <rect x="0" y="0" width="6" height="6" fill="white" stroke="none"/>
    <line x1="0" y1="4" x2="6" y2="4" stroke="black" stroke-width="2"/>
  </pattern>
  <pattern id="pattern3" width="6" height="6" patternUnits="userSpaceOnUse" patternTransform="rotate(45)">
    <rect x="0" y="0" width="6" height="6" fill="white" stroke="none"/>
    <line x1="0" y1="4" x2="6" y2="4" stroke="black" stroke-width="2"/>
  </pattern>
  <pattern id="pattern4" width="6" height="6" patternUnits="userSpaceOnUse" patternTransform="rotate(-45)">
    <rect x="0" y="0" width="6" height="6" fill="white" stroke="none"/>
    <line x1="0" y1="4" x2="6" y2="4" stroke="black" stroke-width="2"/>
  </pattern>
  <pattern id="pattern5" width="6" height="6" patternUnits="userSpaceOnUse" patternTransform="rotate(22.5)">
    <rect x="0" y="0" width="6" height="6" fill="white" stroke="none"/>
    <line x1="0" y1="4" x2="6" y2="4" stroke="black" stroke-width="2"/>
  </pattern>
  <pattern id="pattern6" width="6" height="6" patternUnits="userSpaceOnUse" patternTransform="rotate(-22.5)">
    <rect x="0" y="0" width="6" height="6" fill="white" stroke="none"/>
    <line x1="0" y1="4" x2="6" y2="4" stroke="black" stroke-width="2"/>
  </pattern>
  <pattern id="pattern7" width="6" height="6" patternUnits="userSpaceOnUse" patternTransform="rotate(67.5)">
    <rect x="0" y="0" width="6" height="6" fill="white" stroke="none"/>
    <line x1="0" y1="4" x2="6" y2="4" stroke="black" stroke-width="2"/>
  </pattern>
  <pattern id="pattern8" width="6" height="6" patternUnits="userSpaceOnUse" patternTransform="rotate(-67.5)">
    <rect x="0" y="0" width="6" height="6" fill="white" stroke="none"/>
    <line x1="0" y1="4" x2="6" y2="4" stroke="black" stroke-width="2"/>
  </pattern>

  <pattern id="pattern11" width="12" height="12" patternUnits="userSpaceOnUse" patternTransform="rotate(0)">
    <rect x="0" y="0" width="12" height="12" fill="white" stroke="none"/>
    <line x1="0" y1="4" x2="12" y2="4" stroke="black" stroke-width="2"/>
  </pattern>
  <pattern id="pattern12" width="12" height="12" patternUnits="userSpaceOnUse" patternTransform="rotate(90)">
    <rect x="0" y="0" width="12" height="12" fill="white" stroke="none"/>
    <line x1="0" y1="4" x2="12" y2="4" stroke="black" stroke-width="2"/>
  </pattern>
  <pattern id="pattern13" width="12" height="12" patternUnits="userSpaceOnUse" patternTransform="rotate(45)">
    <rect x="0" y="0" width="12" height="12" fill="white" stroke="none"/>
    <line x1="0" y1="4" x2="12" y2="4" stroke="black" stroke-width="2"/>
  </pattern>
  <pattern id="pattern14" width="12" height="12" patternUnits="userSpaceOnUse" patternTransform="rotate(-45)">
    <rect x="0" y="0" width="12" height="12" fill="white" stroke="none"/>
    <line x1="0" y1="4" x2="12" y2="4" stroke="black" stroke-width="2"/>
  </pattern>
  <pattern id="pattern15" width="12" height="12" patternUnits="userSpaceOnUse" patternTransform="rotate(22.5)">
    <rect x="0" y="0" width="12" height="12" fill="white" stroke="none"/>
    <line x1="0" y1="4" x2="12" y2="4" stroke="black" stroke-width="2"/>
  </pattern>
  <pattern id="pattern16" width="12" height="12" patternUnits="userSpaceOnUse" patternTransform="rotate(-22.5)">
    <rect x="0" y="0" width="12" height="12" fill="white" stroke="none"/>
    <line x1="0" y1="4" x2="12" y2="4" stroke="black" stroke-width="2"/>
  </pattern>
  <pattern id="pattern17" width="12" height="12" patternUnits="userSpaceOnUse" patternTransform="rotate(67.5)">
    <rect x="0" y="0" width="12" height="12" fill="white" stroke="none"/>
    <line x1="0" y1="4" x2="12" y2="4" stroke="black" stroke-width="2"/>
  </pattern>
  <pattern id="pattern18" width="12" height="12" patternUnits="userSpaceOnUse" patternTransform="rotate(-67.5)">
    <rect x="0" y="0" width="12" height="12" fill="white" stroke="none"/>
    <line x1="0" y1="4" x2="12" y2="4" stroke="black" stroke-width="2"/>
  </pattern>

  <pattern id="pattern21" width="6" height="6" patternUnits="userSpaceOnUse" patternTransform="rotate(0)">
    <rect x="0" y="0" width="6" height="6" fill="white" stroke="none"/>
    <line x1="0" y1="4" x2="6" y2="4" stroke="black" stroke-width="2"/>
    <line x1="4" y1="0" x2="4" y2="6" stroke="black" stroke-width="2"/>
  </pattern>
  <pattern id="pattern22" width="6" height="6" patternUnits="userSpaceOnUse" patternTransform="rotate(45)">
    <rect x="0" y="0" width="6" height="6" fill="white" stroke="none"/>
    <line x1="0" y1="4" x2="6" y2="4" stroke="black" stroke-width="2"/>
    <line x1="4" y1="0" x2="4" y2="6" stroke="black" stroke-width="2"/>
  </pattern>
  <pattern id="pattern23" width="6" height="6" patternUnits="userSpaceOnUse" patternTransform="rotate(22.5)">
    <rect x="0" y="0" width="6" height="6" fill="white" stroke="none"/>
    <line x1="0" y1="4" x2="6" y2="4" stroke="black" stroke-width="2"/>
    <line x1="4" y1="0" x2="4" y2="6" stroke="black" stroke-width="2"/>
  </pattern>
  <pattern id="pattern24" width="6" height="6" patternUnits="userSpaceOnUse" patternTransform="rotate(67.5)">
    <rect x="0" y="0" width="6" height="6" fill="white" stroke="none"/>
    <line x1="0" y1="4" x2="6" y2="4" stroke="black" stroke-width="2"/>
    <line x1="4" y1="0" x2="4" y2="6" stroke="black" stroke-width="2"/>
  </pattern>

  <pattern id="pattern31" width="12" height="12" patternUnits="userSpaceOnUse" patternTransform="rotate(0)">
    <rect x="0" y="0" width="12" height="12" fill="white" stroke="none"/>
    <line x1="0" y1="4" x2="12" y2="4" stroke="black" stroke-width="2"/>
    <line x1="4" y1="0" x2="4" y2="12" stroke="black" stroke-width="2"/>
  </pattern>
  <pattern id="pattern32" width="12" height="12" patternUnits="userSpaceOnUse" patternTransform="rotate(45)">
    <rect x="0" y="0" width="12" height="12" fill="white" stroke="none"/>
    <line x1="0" y1="4" x2="12" y2="4" stroke="black" stroke-width="2"/>
    <line x1="4" y1="0" x2="4" y2="12" stroke="black" stroke-width="2"/>
  </pattern>
  <pattern id="pattern33" width="12" height="12" patternUnits="userSpaceOnUse" patternTransform="rotate(22.5)">
    <rect x="0" y="0" width="12" height="12" fill="white" stroke="none"/>
    <line x1="0" y1="4" x2="12" y2="4" stroke="black" stroke-width="2"/>
    <line x1="4" y1="0" x2="4" y2="12" stroke="black" stroke-width="2"/>
  </pattern>
  <pattern id="pattern34" width="12" height="12" patternUnits="userSpaceOnUse" patternTransform="rotate(67.5)">
    <rect x="0" y="0" width="12" height="12" fill="white" stroke="none"/>
    <line x1="0" y1="4" x2="12" y2="4" stroke="black" stroke-width="2"/>
    <line x1="4" y1="0" x2="4" y2="12" stroke="black" stroke-width="2"/>
  </pattern>

  <pattern id="pattern41" width="12" height="12" patternUnits="userSpaceOnUse">
    <rect x="0" y="0" width="12" height="12" fill="white" stroke="none"/>
    <rect x="0" y="0" width="1" height="1" fill="black" stroke="none"/>
    <rect x="6" y="6" width="1" height="1" fill="black" stroke="none"/>
  </pattern>
  <pattern id="pattern42" width="8" height="8" patternUnits="userSpaceOnUse">
    <rect x="0" y="0" width="8" height="8" fill="white" stroke="none"/>
    <rect x="0" y="0" width="1" height="1" fill="black" stroke="none"/>
    <rect x="4" y="4" width="1" height="1" fill="black" stroke="none"/>
  </pattern>
  <pattern id="pattern43" width="6" height="6" patternUnits="userSpaceOnUse">
    <rect x="0" y="0" width="6" height="6" fill="white" stroke="none"/>
    <rect x="0" y="0" width="1" height="1" fill="black" stroke="none"/>
    <rect x="3" y="3" width="1" height="1" fill="black" stroke="none"/>
  </pattern>
  <pattern id="pattern44" width="4" height="4" patternUnits="userSpaceOnUse">
    <rect x="0" y="0" width="4" height="4" fill="white" stroke="none"/>
    <rect x="0" y="0" width="1" height="1" fill="black" stroke="none"/>
    <rect x="2" y="2" width="1" height="1" fill="black" stroke="none"/>
  </pattern>
  <pattern id="pattern45" width="12" height="12" patternUnits="userSpaceOnUse">
    <rect x="0" y="0" width="12" height="12" fill="white" stroke="none"/>
    <rect x="0" y="0" width="2" height="2" fill="black" stroke="none"/>
    <rect x="6" y="6" width="2" height="2" fill="black" stroke="none"/>
  </pattern>
  <pattern id="pattern46" width="8" height="8" patternUnits="userSpaceOnUse">
    <rect x="0" y="0" width="8" height="8" fill="white" stroke="none"/>
    <rect x="0" y="0" width="2" height="2" fill="black" stroke="none"/>
    <rect x="4" y="4" width="2" height="2" fill="black" stroke="none"/>
  </pattern>
  <pattern id="pattern47" width="6" height="6" patternUnits="userSpaceOnUse">
    <rect x="0" y="0" width="6" height="6" fill="white" stroke="none"/>
    <rect x="0" y="0" width="2" height="2" fill="black" stroke="none"/>
    <rect x="3" y="3" width="2" height="2" fill="black" stroke="none"/>
  </pattern>
  <pattern id="pattern48" width="16" height="16" patternUnits="userSpaceOnUse">
    <rect x="0" y="0" width="16" height="16" fill="white" stroke="none"/>
    <rect x="0" y="0" width="4" height="4" fill="black" stroke="none"/>
    <rect x="8" y="8" width="4" height="4" fill="black" stroke="none"/>
  </pattern>
  <pattern id="pattern49" width="12" height="12" patternUnits="userSpaceOnUse">
    <rect x="0" y="0" width="12" height="12" fill="white" stroke="none"/>
    <rect x="0" y="0" width="4" height="4" fill="black" stroke="none"/>
    <rect x="6" y="6" width="4" height="4" fill="black" stroke="none"/>
  </pattern>

  <pattern id="pattern51" width="4" height="4" patternUnits="userSpaceOnUse">
    <rect x="0" y="0" width="4" height="4" fill="white" stroke="none"/>
    <rect x="0" y="0" width="2" height="2" fill="black" stroke="none"/>
    <rect x="2" y="2" width="2" height="2" fill="black" stroke="none"/>
  </pattern>
  <pattern id="pattern52" width="6" height="6" patternUnits="userSpaceOnUse">
    <rect x="0" y="0" width="6" height="6" fill="white" stroke="none"/>
    <rect x="0" y="0" width="3" height="3" fill="black" stroke="none"/>
    <rect x="3" y="3" width="3" height="3" fill="black" stroke="none"/>
  </pattern>
  <pattern id="pattern53" width="8" height="8" patternUnits="userSpaceOnUse">
    <rect x="0" y="0" width="8" height="8" fill="white" stroke="none"/>
    <rect x="0" y="0" width="4" height="4" fill="black" stroke="none"/>
    <rect x="4" y="4" width="4" height="4" fill="black" stroke="none"/>
  </pattern>
  <pattern id="pattern54" width="10" height="10" patternUnits="userSpaceOnUse">
    <rect x="0" y="0" width="10" height="10" fill="white" stroke="none"/>
    <rect x="0" y="0" width="5" height="5" fill="black" stroke="none"/>
    <rect x="5" y="5" width="5" height="5" fill="black" stroke="none"/>
  </pattern>
  <pattern id="pattern55" width="12" height="12" patternUnits="userSpaceOnUse">
    <rect x="0" y="0" width="12" height="12" fill="white" stroke="none"/>
    <rect x="0" y="0" width="6" height="6" fill="black" stroke="none"/>
    <rect x="6" y="6" width="6" height="6" fill="black" stroke="none"/>
  </pattern>
  <pattern id="pattern56" width="16" height="16" patternUnits="userSpaceOnUse">
    <rect x="0" y="0" width="16" height="16" fill="white" stroke="none"/>
    <rect x="0" y="0" width="8" height="8" fill="black" stroke="none"/>
    <rect x="8" y="8" width="8" height="8" fill="black" stroke="none"/>
  </pattern>

  <pattern id="pattern61" width="16" height="16" patternUnits="userSpaceOnUse">
    <rect x="0" y="0" width="16" height="16" fill="white" stroke="none"/>
    <circle cx="4" cy="4" r="3" fill="black" stroke="none"/>
    <circle cx="12" cy="12" r="3" fill="black" stroke="none"/>
  </pattern>
  <pattern id="pattern62" width="20" height="20" patternUnits="userSpaceOnUse">
    <rect x="0" y="0" width="20" height="20" fill="white" stroke="none"/>
    <circle cx="5" cy="5" r="4" fill="black" stroke="none"/>
    <circle cx="15" cy="15" r="4" fill="black" stroke="none"/>
  </pattern>
  <pattern id="pattern63" width="16" height="16" patternUnits="userSpaceOnUse">
    <rect x="0" y="0" width="16" height="16" fill="white" stroke="none"/>
    <circle cx="4" cy="4" r="3" fill="none" stroke="black" stroke-width="1"/>
    <circle cx="12" cy="12" r="3" fill="none" stroke="black" stroke-width="1"/>
  </pattern>
  <pattern id="pattern64" width="20" height="20" patternUnits="userSpaceOnUse">
    <rect x="0" y="0" width="20" height="20" fill="white" stroke="none"/>
    <circle cx="5" cy="5" r="4" fill="none" stroke="black" stroke-width="1"/>
    <circle cx="15" cy="15" r="4" fill="none" stroke="black" stroke-width="1"/>
  </pattern>
</defs>

<rect id="imagebackground" x="0" y="0" width="600" height="235" stroke="none" fill="white"/>

<text x="10" y="20">1</text>
<rect class="rect-general" transform="scale(1, -1)" x="40" y="-25" width="30" height="20" fill="url(#pattern1)"/>

<text x="10" y="45">2</text>
<rect class="rect-general" transform="scale(1, -1)" x="40" y="-50" width="30" height="20" fill="url(#pattern2)"/>

<text x="10" y="70">3</text>
<rect class="rect-general" transform="scale(1, -1)" x="40" y="-75" width="30" height="20" fill="url(#pattern3)"/>

<text x="10" y="95">4</text>
<rect class="rect-general" transform="scale(1, -1)" x="40" y="-100" width="30" height="20" fill="url(#pattern4)"/>

<text x="10" y="120">5</text>
<rect class="rect-general" transform="scale(1, -1)" x="40" y="-125" width="30" height="20" fill="url(#pattern5)"/>

<text x="10" y="145">6</text>
<rect class="rect-general" transform="scale(1, -1)" x="40" y="-150" width="30" height="20" fill="url(#pattern6)"/>

<text x="10" y="170">7</text>
<rect class="rect-general" transform="scale(1, -1)" x="40" y="-175" width="30" height="20" fill="url(#pattern7)"/>

<text x="10" y="195">8</text>
<rect class="rect-general" transform="scale(1, -1)" x="40" y="-200" width="30" height="20" fill="url(#pattern8)"/>


<text x="110" y="20">11</text>
<rect class="rect-general" transform="scale(1, -1)" x="140" y="-25" width="30" height="20" fill="url(#pattern11)"/>

<text x="110" y="45">12</text>
<rect class="rect-general" transform="scale(1, -1)" x="140" y="-50" width="30" height="20" fill="url(#pattern12)"/>

<text x="110" y="70">13</text>
<rect class="rect-general" transform="scale(1, -1)" x="140" y="-75" width="30" height="20" fill="url(#pattern13)"/>

<text x="110" y="95">14</text>
<rect class="rect-general" transform="scale(1, -1)" x="140" y="-100" width="30" height="20" fill="url(#pattern14)"/>

<text x="110" y="120">15</text>
<rect class="rect-general" transform="scale(1, -1)" x="140" y="-125" width="30" height="20" fill="url(#pattern15)"/>

<text x="110" y="145">16</text>
<rect class="rect-general" transform="scale(1, -1)" x="140" y="-150" width="30" height="20" fill="url(#pattern16)"/>

<text x="110" y="170">17</text>
<rect class="rect-general" transform="scale(1, -1)" x="140" y="-175" width="30" height="20" fill="url(#pattern17)"/>

<text x="110" y="195">18</text>
<rect class="rect-general" transform="scale(1, -1)" x="140" y="-200" width="30" height="20" fill="url(#pattern18)"/>


<text x="210" y="20">21</text>
<rect class="rect-general" transform="scale(1, -1)" x="240" y="-25" width="30" height="20" fill="url(#pattern21)"/>

<text x="210" y="45">22</text>
<rect class="rect-general" transform="scale(1, -1)" x="240" y="-50" width="30" height="20" fill="url(#pattern22)"/>

<text x="210" y="70">23</text>
<rect class="rect-general" transform="scale(1, -1)" x="240" y="-75" width="30" height="20" fill="url(#pattern23)"/>

<text x="210" y="95">24</text>
<rect class="rect-general" transform="scale(1, -1)" x="240" y="-100" width="30" height="20" fill="url(#pattern24)"/>


<text x="210" y="145">31</text>
<rect class="rect-general" transform="scale(1, -1)" x="240" y="-150" width="30" height="20" fill="url(#pattern31)"/>

<text x="210" y="170">32</text>
<rect class="rect-general" transform="scale(1, -1)" x="240" y="-175" width="30" height="20" fill="url(#pattern32)"/>

<text x="210" y="195">33</text>
<rect class="rect-general" transform="scale(1, -1)" x="240" y="-200" width="30" height="20" fill="url(#pattern33)"/>

<text x="210" y="220">34</text>
<rect class="rect-general" transform="scale(1, -1)" x="240" y="-225" width="30" height="20" fill="url(#pattern34)"/>


<text x="310" y="20">41</text>
<rect class="rect-general" transform="scale(1, -1)" x="340" y="-25" width="30" height="20" fill="url(#pattern41)"/>

<text x="310" y="45">42</text>
<rect class="rect-general" transform="scale(1, -1)" x="340" y="-50" width="30" height="20" fill="url(#pattern42)"/>

<text x="310" y="70">43</text>
<rect class="rect-general" transform="scale(1, -1)" x="340" y="-75" width="30" height="20" fill="url(#pattern43)"/>

<text x="310" y="95">44</text>
<rect class="rect-general" transform="scale(1, -1)" x="340" y="-100" width="30" height="20" fill="url(#pattern44)"/>

<text x="310" y="120">45</text>
<rect class="rect-general" transform="scale(1, -1)" x="340" y="-125" width="30" height="20" fill="url(#pattern45)"/>

<text x="310" y="145">46</text>
<rect class="rect-general" transform="scale(1, -1)" x="340" y="-150" width="30" height="20" fill="url(#pattern46)"/>

<text x="310" y="170">47</text>
<rect class="rect-general" transform="scale(1, -1)" x="340" y="-175" width="30" height="20" fill="url(#pattern47)"/>

<text x="310" y="195">48</text>
<rect class="rect-general" transform="scale(1, -1)" x="340" y="-200" width="30" height="20" fill="url(#pattern48)"/>

<text x="310" y="220">49</text>
<rect class="rect-general" transform="scale(1, -1)" x="340" y="-225" width="30" height="20" fill="url(#pattern49)"/>


<text x="410" y="20">51</text>
<rect class="rect-general" transform="scale(1, -1)" x="440" y="-25" width="30" height="20" fill="url(#pattern51)"/>

<text x="410" y="45">52</text>
<rect class="rect-general" transform="scale(1, -1)" x="440" y="-50" width="30" height="20" fill="url(#pattern52)"/>

<text x="410" y="70">53</text>
<rect class="rect-general" transform="scale(1, -1)" x="440" y="-75" width="30" height="20" fill="url(#pattern53)"/>

<text x="410" y="95">54</text>
<rect class="rect-general" transform="scale(1, -1)" x="440" y="-100" width="30" height="20" fill="url(#pattern54)"/>

<text x="410" y="120">55</text>
<rect class="rect-general" transform="scale(1, -1)" x="440" y="-125" width="30" height="20" fill="url(#pattern55)"/>

<text x="410" y="145">56</text>
<rect class="rect-general" transform="scale(1, -1)" x="440" y="-150" width="30" height="20" fill="url(#pattern56)"/>


<text x="510" y="20">61</text>
<rect class="rect-general" transform="scale(1, -1)" x="540" y="-25" width="30" height="20" fill="url(#pattern61)"/>

<text x="510" y="45">62</text>
<rect class="rect-general" transform="scale(1, -1)" x="540" y="-50" width="30" height="20" fill="url(#pattern62)"/>

<text x="510" y="70">63</text>
<rect class="rect-general" transform="scale(1, -1)" x="540" y="-75" width="30" height="20" fill="url(#pattern63)"/>

<text x="510" y="95">64</text>
<rect class="rect-general" transform="scale(1, -1)" x="540" y="-100" width="30" height="20" fill="url(#pattern64)"/>

</svg>